<mxfile host="app.diagrams.net" modified="2021-03-24T13:02:47.551Z" agent="5.0 (Windows NT 10.0; Win64; x64) AppleWebKit/537.36 (KHTML, like Gecko) Chrome/89.0.4389.90 Safari/537.36" etag="OZ_aG1AnXPwTvCuUc-iL" version="14.4.9" type="github">
  <diagram id="TjpgiWCRnCFQcZc7T2fC" name="Page-1">
    <mxGraphModel dx="868" dy="393" grid="1" gridSize="10" guides="1" tooltips="1" connect="1" arrows="1" fold="1" page="1" pageScale="1" pageWidth="850" pageHeight="1100" math="0" shadow="0">
      <root>
        <mxCell id="0" />
        <mxCell id="1" parent="0" />
      </root>
    </mxGraphModel>
  </diagram>
</mxfile>
